<?xml version="1.0" encoding="iso-8859-1"?>
<!-- Uploaded to: SVG Repo, www.svgrepo.com, Generator: SVG Repo Mixer Tools -->
<!DOCTYPE svg PUBLIC "-//W3C//DTD SVG 1.1//EN" "http://www.w3.org/Graphics/SVG/1.1/DTD/svg11.dtd">
<svg height="800px" width="800px" version="1.1" id="Capa_1" xmlns="http://www.w3.org/2000/svg" xmlns:xlink="http://www.w3.org/1999/xlink" 
	 viewBox="0 0 151.362 151.362" xml:space="preserve">
<g>
	<path style="fill:#F16268;" d="M32.434,34.322h4.353h17.317c-0.889-3.435-3.985-5.988-7.693-5.988H33.139
		c-3.708,0-6.805,2.554-7.693,5.988H32.434z"/>
	<g>
		<path style="fill:#71CDDE;" d="M134.24,39.951H44.711c0.315,0.885,0.519,1.823,0.519,2.814v77.45c0,0.991-0.203,1.93-0.519,2.814
			h89.529c6.336,0,11.493-5.156,11.493-11.493V51.444C145.733,45.107,140.576,39.951,134.24,39.951z M100.498,121.267
			c-21.933,0-39.777-17.845-39.777-39.775c0-21.934,17.845-39.778,39.777-39.778c21.932,0,39.776,17.845,39.776,39.778
			C140.274,103.422,122.43,121.267,100.498,121.267z"/>
	</g>
	<path style="fill:#F16268;" d="M39.601,120.215v-77.45c0-1.55-1.263-2.814-2.814-2.814h-4.353H8.443
		c-1.552,0-2.814,1.265-2.814,2.814v77.45c0,1.55,1.263,2.814,2.814,2.814h23.99h4.353C38.338,123.03,39.601,121.765,39.601,120.215
		z"/>
	<g>
		<path style="fill:#F16268;" d="M134.645,81.492c0-18.829-15.318-34.148-34.146-34.148c-18.829,0-34.147,15.319-34.147,34.148
			c0,18.827,15.318,34.146,34.147,34.146C119.326,115.637,134.645,100.319,134.645,81.492z M100.498,109.751
			c-15.583,0-28.262-12.677-28.262-28.26s12.679-28.263,28.262-28.263c15.583,0,28.262,12.68,28.262,28.263
			S116.081,109.751,100.498,109.751z"/>
	</g>
	<path style="fill:#FFFFFF;" d="M123.13,81.492c0-12.479-10.153-22.634-22.632-22.634c-12.479,0-22.633,10.155-22.633,22.634
		c0,12.479,10.153,22.631,22.633,22.631C112.977,104.123,123.13,93.971,123.13,81.492z"/>
	<path style="fill:#FFFFFF;" d="M9.617,126.576l1-88.5c0,0-5.5-1.5-7.5,2s-0.5,84-0.5,84S3.617,127.076,9.617,126.576z"/>
	<path style="fill:#FFFFFF;" d="M114.117,49.576c0,0-29.5-5.5-41.5,18s8,44.5,17,50c0,0-30-9.5-25.5-40
		S99.117,37.076,114.117,49.576z"/>
	<path style="fill:#FFFFFF;" d="M28.617,38.076c0,0,0-5,3.5-7s20-3.5,20-3.5s-14.5-3.5-21.5-2s-9,10-9,10L28.617,38.076z"/>
	<g>
		<path style="fill:#25555E;" d="M134.24,34.322H59.813c-0.971-6.556-6.581-11.618-13.402-11.618H33.139
			c-6.821,0-12.432,5.063-13.402,11.618H8.443C3.787,34.322,0,38.111,0,42.765v77.45c0,4.654,3.787,8.443,8.443,8.443h23.99h4.353
			h97.454c9.441,0,17.122-7.682,17.122-17.122V51.444C151.362,42.003,143.681,34.322,134.24,34.322z M145.733,111.537
			c0,6.337-5.157,11.493-11.493,11.493H44.711c0.315-0.885,0.519-1.823,0.519-2.814v-77.45c0-0.991-0.203-1.93-0.519-2.814h89.529
			c6.336,0,11.493,5.156,11.493,11.493V111.537z M8.443,123.03c-1.552,0-2.814-1.265-2.814-2.814v-77.45
			c0-1.55,1.263-2.814,2.814-2.814h23.99h4.353c1.552,0,2.814,1.265,2.814,2.814v77.45c0,1.55-1.263,2.814-2.814,2.814h-4.353H8.443
			z M33.139,28.333H46.41c3.708,0,6.805,2.554,7.693,5.988H36.786h-4.353h-6.988C26.334,30.887,29.431,28.333,33.139,28.333z"/>
	</g>
	<g>
		<path style="fill:#25555E;" d="M100.498,41.713c-21.933,0-39.777,17.845-39.777,39.778c0,21.931,17.845,39.775,39.777,39.775
			c21.932,0,39.776-17.845,39.776-39.775C140.274,59.558,122.43,41.713,100.498,41.713z M66.351,81.492
			c0-18.829,15.318-34.148,34.147-34.148c18.828,0,34.146,15.319,34.146,34.148c0,18.827-15.318,34.146-34.146,34.146
			C81.669,115.637,66.351,100.319,66.351,81.492z"/>
	</g>
	<g>
		<path style="fill:#25555E;" d="M100.498,53.229c-15.583,0-28.262,12.68-28.262,28.263s12.679,28.26,28.262,28.26
			c15.583,0,28.262-12.677,28.262-28.26S116.081,53.229,100.498,53.229z M77.865,81.492c0-12.479,10.153-22.634,22.633-22.634
			c12.479,0,22.632,10.155,22.632,22.634c0,12.479-10.153,22.631-22.632,22.631C88.019,104.123,77.865,93.971,77.865,81.492z"/>
	</g>
</g>
</svg>